# xmcd
#
# Track frame offsets:
#	183
#	12133
#	20698
#	35560
#	47155
#	60383
#	70513
#	82215
#	97728
#	109705
#	120663
#	128808
#	139135
#	149615
#	163330
#	175453
#
# Disc length: 2548
#
# Revision: 3
# Processed by: cddbd v1.5.1PL0 Copyright (c) Steve Scherf et al.
# Submitted via: DiscPlay 3.4.1
# Normalized: r1:DSETVAR1,TDELIM( - ),TSWAP
#
DISCID=e009f210
DTITLE=Various Artist - BEST OF THE COUNTRY SONGS                     176
DYEAR=1900
DGENRE=
TTITLE0=DONNA FARGO - U.S OF AMERICA
TTITLE1=WILLIE NELSON - SO WILLYOU MY LOVE
TTITLE2=WILLIE NELSON - SO WILL YOU MY LOVE
TTITLE3=DOC WATSON - TOM DOOLE
TTITLE4=ALABAMA - PATCHES
TTITLE5=JOHNNY CASH - THERE YOU GO
TTITLE6=GILLIE JO SPEARS - TRY A LITTLE KINDNESS
TTITLE7=THE OAK RIDGE BOYS - FATHE ALONG
TTITLE8=JOHNNY CASH - YOURE THE NEAREST THIEN TO HEAVEN
TTITLE9=DON WILLIEAMS - SPEND SOME TIME WITHE ME
TTITLE10=WILLIE NELSON - YOU WOULDNT CROSS THE STREET TO SAY GOODBY
TTITLE11=FREDDY FENDER - BEFORE THE NEXT TEARDROP FALLS
TTITLE12=KENNY RODGERS - WE ALL GOT TO HELP EACH OTHER
TTITLE13=JERRY LEE LEWIS - COLD COLD HEART
TTITLE14=WAYLON JENNINGS - DONT THINK TWICE
TTITLE15=KENNY RODGERS - MY WASHINGTON WOMAN
EXTD=
EXTT0=
EXTT1=
EXTT2=
EXTT3=
EXTT4=
EXTT5=
EXTT6=
EXTT7=
EXTT8=
EXTT9=
EXTT10=
EXTT11=
EXTT12=
EXTT13=
EXTT14=
EXTT15=
PLAYORDER=
